<svg width="28" height="28" viewBox="0 0 28 28" fill="none" xmlns="http://www.w3.org/2000/svg">
<g filter="url(#filter0_d_117_1119)">
<path fill-rule="evenodd" clip-rule="evenodd" d="M14 0C8.47727 0 4 4.47727 4 10C4 15.5227 8.47727 20 14 20C19.5227 20 24 15.5227 24 10C24 4.47727 19.5227 0 14 0ZM17.37 7.91545C17.5356 7.744 17.6272 7.51436 17.6252 7.276C17.6231 7.03764 17.5275 6.80963 17.3589 6.64107C17.1904 6.47252 16.9624 6.37691 16.724 6.37484C16.4856 6.37277 16.256 6.4644 16.0845 6.63L14 8.71455L11.9155 6.63C11.8316 6.54317 11.7313 6.47392 11.6204 6.42627C11.5095 6.37863 11.3902 6.35355 11.2695 6.3525C11.1487 6.35145 11.029 6.37445 10.9173 6.42016C10.8056 6.46587 10.7041 6.53338 10.6187 6.61873C10.5334 6.70409 10.4659 6.80559 10.4202 6.91731C10.3745 7.02904 10.3515 7.14875 10.3525 7.26946C10.3535 7.39016 10.3786 7.50946 10.4263 7.62037C10.4739 7.73128 10.5432 7.83159 10.63 7.91545L12.7145 10L10.63 12.0845C10.5432 12.1684 10.4739 12.2687 10.4263 12.3796C10.3786 12.4905 10.3535 12.6098 10.3525 12.7305C10.3515 12.8513 10.3745 12.971 10.4202 13.0827C10.4659 13.1944 10.5334 13.2959 10.6187 13.3813C10.7041 13.4666 10.8056 13.5341 10.9173 13.5798C11.029 13.6255 11.1487 13.6486 11.2695 13.6475C11.3902 13.6465 11.5095 13.6214 11.6204 13.5737C11.7313 13.5261 11.8316 13.4568 11.9155 13.37L14 11.2855L16.0845 13.37C16.256 13.5356 16.4856 13.6272 16.724 13.6252C16.9624 13.6231 17.1904 13.5275 17.3589 13.3589C17.5275 13.1904 17.6231 12.9624 17.6252 12.724C17.6272 12.4856 17.5356 12.256 17.37 12.0845L15.2855 10L17.37 7.91545Z" fill="#9F9F9F"/>
</g>
<defs>
<filter id="filter0_d_117_1119" x="0" y="0" width="28" height="28" filterUnits="userSpaceOnUse" color-interpolation-filters="sRGB">
<feFlood flood-opacity="0" result="BackgroundImageFix"/>
<feColorMatrix in="SourceAlpha" type="matrix" values="0 0 0 0 0 0 0 0 0 0 0 0 0 0 0 0 0 0 127 0" result="hardAlpha"/>
<feOffset dy="4"/>
<feGaussianBlur stdDeviation="2"/>
<feComposite in2="hardAlpha" operator="out"/>
<feColorMatrix type="matrix" values="0 0 0 0 0 0 0 0 0 0 0 0 0 0 0 0 0 0 0.25 0"/>
<feBlend mode="normal" in2="BackgroundImageFix" result="effect1_dropShadow_117_1119"/>
<feBlend mode="normal" in="SourceGraphic" in2="effect1_dropShadow_117_1119" result="shape"/>
</filter>
</defs>
</svg>
